<svg xmlns="http://www.w3.org/2000/svg" width="380" height="380" viewBox="0 0 380 380">
  <g fill="none" stroke="#8696A0" stroke-width="1.4" stroke-linecap="round" stroke-linejoin="round" opacity="0.07">
    <!-- Row 1 -->
    <circle cx="40" cy="40" r="14"/>
    <path d="M30 40 a10 10 0 0 0 20 0"/>
    <circle cx="36" cy="36" r="1.5" fill="#8696A0"/>
    <circle cx="44" cy="36" r="1.5" fill="#8696A0"/>

    <path d="M100 30 q-8 8 0 16 q8 -8 16 0 q-8 -8 0 -16 q8 8 16 0 q-8 -8 0 -16"/>

    <path d="M170 25 c-6 0 -10 4 -10 10 c0 8 10 15 10 15 c0 0 10 -7 10 -15 c0 -6 -4 -10 -10 -10 z"/>

    <rect x="220" y="20" width="30" height="30" rx="3"/>
    <path d="M225 30 l8 8 l12 -14"/>

    <circle cx="310" cy="40" r="14"/>
    <path d="M298 36 l24 8 M298 44 l24 -8"/>

    <!-- Row 2 -->
    <path d="M30 100 q15 -20 30 0 q15 20 30 0"/>
    <circle cx="35" cy="100" r="2" fill="#8696A0"/>
    <circle cx="85" cy="100" r="2" fill="#8696A0"/>

    <path d="M140 90 l10 20 l10 -20 z"/>
    <circle cx="150" cy="95" r="2" fill="#8696A0"/>

    <path d="M210 90 l20 0 l-10 25 z"/>

    <path d="M280 95 c0 -8 8 -12 14 -8 c6 -4 14 0 14 8 c0 12 -14 18 -14 18 s-14 -6 -14 -18 z"/>

    <!-- Row 3 -->
    <circle cx="55" cy="180" r="18"/>
    <path d="M40 175 q15 12 30 0 M42 185 q13 8 26 0"/>

    <path d="M130 175 a15 15 0 1 0 0 10 z"/>
    <path d="M130 175 l8 -5 M130 185 l8 5"/>

    <rect x="200" y="170" width="40" height="20" rx="10"/>
    <circle cx="215" cy="180" r="3" fill="#8696A0"/>
    <circle cx="225" cy="180" r="3" fill="#8696A0"/>

    <path d="M290 165 q-10 5 -10 18 q0 12 10 17 q10 -5 10 -17 q0 -13 -10 -18 z"/>
    <path d="M290 165 v35"/>

    <!-- Row 4 -->
    <path d="M30 260 q10 -15 25 -5 q5 -12 15 -5 q15 5 10 20 q-25 5 -50 -10 z"/>

    <circle cx="135" cy="260" r="15"/>
    <path d="M125 255 l8 5 5 -8 5 8 -8 5"/>

    <path d="M200 250 l30 0 l-5 20 l-20 0 z"/>
    <path d="M210 250 v-8 l10 0 v8"/>

    <path d="M290 245 q-15 10 0 25 q15 -10 0 -25"/>
    <circle cx="290" cy="257" r="3" fill="#8696A0"/>

    <!-- Row 5 -->
    <path d="M40 335 l12 -25 l12 25 z"/>
    <path d="M52 320 l0 -12"/>

    <circle cx="125" cy="335" r="16"/>
    <path d="M115 335 q10 -12 20 0"/>

    <path d="M195 320 a12 12 0 1 0 24 0 a12 12 0 1 0 -24 0 M207 308 v-8 M207 332 v8"/>

    <path d="M275 320 q-5 10 5 18 q10 -8 5 -18 q-5 -10 -10 0 q-5 -10 0 0 z"/>
  </g>
</svg>
