<svg xmlns="http://www.w3.org/2000/svg" style="display:none">
  <defs>
    <!-- Header (chats list) -->
    <symbol id="search" viewBox="0 0 24 24"><path fill="none" stroke="currentColor" stroke-width="2.35" stroke-linecap="round" d="m20 20-4.45-4.45"/><circle cx="10.6" cy="10.6" r="6.1" fill="none" stroke="currentColor" stroke-width="2.35"/></symbol>
    <symbol id="camera" viewBox="0 0 24 24"><path fill="none" stroke="currentColor" stroke-width="2.15" stroke-linecap="round" stroke-linejoin="round" d="M8.4 6.4 10 4.6h4l1.6 1.8H19a2.2 2.2 0 0 1 2.2 2.2v9.1A2.2 2.2 0 0 1 19 19.9H5a2.2 2.2 0 0 1-2.2-2.2V8.6A2.2 2.2 0 0 1 5 6.4h3.4Z"/><circle cx="12" cy="13" r="3.35" fill="none" stroke="currentColor" stroke-width="2.15"/></symbol>
    <symbol id="more-vert" viewBox="0 0 24 24"><circle cx="12" cy="5.4" r="1.75" fill="currentColor"/><circle cx="12" cy="12" r="1.75" fill="currentColor"/><circle cx="12" cy="18.6" r="1.75" fill="currentColor"/></symbol>

    <!-- Chats list rows -->
    <symbol id="archived" viewBox="0 0 24 24"><path fill="none" stroke="currentColor" stroke-width="2" stroke-linecap="round" stroke-linejoin="round" d="M5 8.4h14M6.8 5h10.4c1 0 1.8.8 1.8 1.8v11.4c0 1-.8 1.8-1.8 1.8H6.8c-1 0-1.8-.8-1.8-1.8V6.8C5 5.8 5.8 5 6.8 5Z"/><path fill="none" stroke="currentColor" stroke-width="2" stroke-linecap="round" stroke-linejoin="round" d="M12 10.9v5.2m-3-2.7 3 3 3-3"/></symbol>
    <symbol id="mute-bell" viewBox="0 0 24 24"><path fill="none" stroke="currentColor" stroke-width="2" stroke-linecap="round" stroke-linejoin="round" d="M5 4 19 20M9.2 19h5.6M10 21.2h4"/><path fill="none" stroke="currentColor" stroke-width="2" stroke-linecap="round" stroke-linejoin="round" d="M7 10.8c0-2.9 2-5.1 5-5.1 1 0 1.9.2 2.6.7M17 11.4V15l2 2H8.5M5 17l2-2v-2.4"/></symbol>

    <!-- FAB -->
    <symbol id="fab-plus" viewBox="0 0 24 24"><path fill="currentColor" d="M4.7 5.5h14.6c1.2 0 2.2 1 2.2 2.2v8.2c0 1.2-1 2.2-2.2 2.2H9l-5 3v-13.4c0-1.2 1-2.2 2.2-2.2Z"/><path fill="#21C163" d="M8 10h8v1.8H8V10Zm0 3h5.5v1.8H8V13Z"/><path fill="#21C163" d="M16.6 10.7h1.8v2.1h2.1v1.8h-2.1v2.1h-1.8v-2.1h-2.1v-1.8h2.1v-2.1Z"/></symbol>

    <!-- Bottom tabs -->
    <symbol id="tab-chats" viewBox="0 0 24 24"><path fill="none" stroke="currentColor" stroke-width="2.25" stroke-linecap="round" stroke-linejoin="round" d="M5.2 5.8h13.6c1.1 0 2 .9 2 2v7.4c0 1.1-.9 2-2 2H9.5l-4.3 2.6v-12c0-1.1.9-2 2-2Z"/><path fill="none" stroke="currentColor" stroke-width="2.25" stroke-linecap="round" d="M9 10h6.5M9 13.5h4.2"/></symbol>
    <symbol id="tab-updates" viewBox="0 0 24 24"><path fill="none" stroke="currentColor" stroke-width="2.2" stroke-linecap="round" d="M7.1 5.8A8 8 0 0 1 17 5.3M4.4 10.4a8 8 0 0 0 2 7.3M19.7 9a8 8 0 0 1-1.9 8.3M9.7 20a8 8 0 0 0 4.8.1"/><circle cx="12" cy="12" r="3.5" fill="none" stroke="currentColor" stroke-width="2.2"/></symbol>
    <symbol id="tab-communities" viewBox="0 0 24 24"><circle cx="12" cy="8.6" r="3" fill="none" stroke="currentColor" stroke-width="2"/><circle cx="5.8" cy="10.6" r="2.4" fill="none" stroke="currentColor" stroke-width="2"/><circle cx="18.2" cy="10.6" r="2.4" fill="none" stroke="currentColor" stroke-width="2"/><path fill="none" stroke="currentColor" stroke-width="2" stroke-linecap="round" stroke-linejoin="round" d="M6.9 18.6c.8-2.5 2.5-3.8 5.1-3.8s4.3 1.3 5.1 3.8M2.8 18.4c.4-1.8 1.6-2.8 3.2-2.9M21.2 18.4c-.4-1.8-1.6-2.8-3.2-2.9"/></symbol>
    <symbol id="tab-calls" viewBox="0 0 24 24"><path fill="none" stroke="currentColor" stroke-width="2.25" stroke-linecap="round" stroke-linejoin="round" d="M7.2 4.4 9.6 9c.3.6.1 1.3-.4 1.7l-1.5 1.1c1.4 2.8 3.6 5 6.5 6.4l1.1-1.5c.4-.5 1.1-.7 1.7-.4l4.5 2.3c.7.4 1 1.1.8 1.9-.3 1.1-1.4 1.9-2.6 1.9C10 22.4 1.6 14 1.6 4.4c0-1.2.8-2.3 1.9-2.6.8-.2 1.5.1 1.9.8Z"/></symbol>

    <!-- Floating Meta AI button -->
    <symbol id="meta-ai" viewBox="0 0 24 24">
      <circle cx="12" cy="12" r="3.1" fill="#7A5CFF"/>
      <circle cx="12" cy="4.2" r="2.1" fill="#8E6CFF"/>
      <circle cx="12" cy="19.8" r="2.1" fill="#6B4CFF"/>
      <circle cx="4.2" cy="12" r="2.1" fill="#5D65FF"/>
      <circle cx="19.8" cy="12" r="2.1" fill="#B44CFF"/>
      <circle cx="6.5" cy="6.5" r="2" fill="#4EB6FF"/>
      <circle cx="17.5" cy="6.5" r="2" fill="#D94CFF"/>
      <circle cx="6.5" cy="17.5" r="2" fill="#735CFF"/>
      <circle cx="17.5" cy="17.5" r="2" fill="#9B4CFF"/>
    </symbol>

    <!-- Conversation header -->
    <symbol id="back" viewBox="0 0 24 24"><path fill="currentColor" d="M20 11H7.83l5.59-5.59L12 4l-8 8 8 8 1.41-1.41L7.83 13H20v-2Z"/></symbol>
    <symbol id="video" viewBox="0 0 24 24"><path fill="none" stroke="currentColor" stroke-width="2.25" stroke-linecap="round" stroke-linejoin="round" d="M4.8 6.3h10.4c1 0 1.8.8 1.8 1.8v7.8c0 1-.8 1.8-1.8 1.8H4.8c-1 0-1.8-.8-1.8-1.8V8.1c0-1 .8-1.8 1.8-1.8Z"/><path fill="none" stroke="currentColor" stroke-width="2.25" stroke-linecap="round" stroke-linejoin="round" d="m17 10.2 4-2.4v8.4l-4-2.4"/></symbol>
    <symbol id="phone" viewBox="0 0 24 24"><path fill="none" stroke="currentColor" stroke-width="2.25" stroke-linecap="round" stroke-linejoin="round" d="M7.2 4.4 9.6 9c.3.6.1 1.3-.4 1.7l-1.5 1.1c1.4 2.8 3.6 5 6.5 6.4l1.1-1.5c.4-.5 1.1-.7 1.7-.4l4.5 2.3c.7.4 1 1.1.8 1.9-.3 1.1-1.4 1.9-2.6 1.9C10 22.4 1.6 14 1.6 4.4c0-1.2.8-2.3 1.9-2.6.8-.2 1.5.1 1.9.8Z"/></symbol>

    <!-- Input bar -->
    <symbol id="emoji" viewBox="0 0 24 24"><path fill="currentColor" d="M11.99 2C6.47 2 2 6.48 2 12s4.47 10 9.99 10C17.52 22 22 17.52 22 12S17.52 2 11.99 2Zm.01 18a8 8 0 1 1 0-16 8 8 0 0 1 0 16Zm3.5-9a1.5 1.5 0 1 0-1.5-1.5 1.5 1.5 0 0 0 1.5 1.5Zm-7 0a1.5 1.5 0 1 0-1.5-1.5A1.5 1.5 0 0 0 8.5 11Zm3.5 6.5a5.5 5.5 0 0 0 5.11-3.5H6.89a5.5 5.5 0 0 0 5.11 3.5Z"/></symbol>
    <symbol id="attach" viewBox="0 0 24 24"><path fill="currentColor" d="M16.5 6v11.5a4 4 0 0 1-8 0V5a2.5 2.5 0 0 1 5 0v10.5a1 1 0 0 1-2 0V6H10v9.5a2.5 2.5 0 0 0 5 0V5a4 4 0 0 0-8 0v12.5a5.5 5.5 0 0 0 11 0V6h-1.5Z"/></symbol>
    <symbol id="mic" viewBox="0 0 24 24"><path fill="currentColor" d="M12 14a3 3 0 0 0 3-3V5a3 3 0 1 0-6 0v6a3 3 0 0 0 3 3Zm5.3-3c0 3-2.54 5.1-5.3 5.1S6.7 14 6.7 11H5a7 7 0 0 0 6 6.92V21h2v-3.08A7 7 0 0 0 19 11h-1.7Z"/></symbol>

    <!-- Ticks -->
    <symbol id="tick-single" viewBox="0 0 18 12">
      <path fill="none" stroke="currentColor" stroke-width="1.6" stroke-linecap="round" stroke-linejoin="round" d="M2 6.5 6 10.5 16 1.5"/>
    </symbol>
    <symbol id="tick-double" viewBox="0 0 20 10">
      <path fill="none" stroke="currentColor" stroke-width="1.5" stroke-linecap="round" stroke-linejoin="round" d="M1 5 L4 8 L11 1 M7 5 L10 8 L18 1"/>
    </symbol>

    <!-- Status share embed -->
    <symbol id="status-camera" viewBox="0 0 24 24"><path fill="currentColor" d="M17 10.5V7a1 1 0 0 0-1-1H4a1 1 0 0 0-1 1v10a1 1 0 0 0 1 1h12a1 1 0 0 0 1-1v-3.5l4 4v-11l-4 4Z"/></symbol>

    <!-- Group avatar fallback -->
    <symbol id="people" viewBox="0 0 24 24"><path fill="currentColor" d="M16 11c1.66 0 2.99-1.34 2.99-3S17.66 5 16 5c-1.66 0-3 1.34-3 3s1.34 3 3 3Zm-8 0c1.66 0 2.99-1.34 2.99-3S9.66 5 8 5C6.34 5 5 6.34 5 8s1.34 3 3 3Zm0 2c-2.33 0-7 1.17-7 3.5V19h14v-2.5c0-2.33-4.67-3.5-7-3.5Zm8 0c-.29 0-.62.02-.97.05 1.16.84 1.97 1.97 1.97 3.45V19h6v-2.5c0-2.33-4.67-3.5-7-3.5Z"/></symbol>
  </defs>
</svg>
