<svg xmlns="http://www.w3.org/2000/svg" style="display:none">
  <defs>
    <!-- Header (chats list) -->
    <symbol id="search" viewBox="0 0 24 24"><path fill="currentColor" d="M15.5 14h-.79l-.28-.27a6.5 6.5 0 1 0-.7.7l.27.28v.79l5 5 1.49-1.49-5-5Zm-6 0A4.5 4.5 0 1 1 14 9.5 4.5 4.5 0 0 1 9.5 14Z"/></symbol>
    <symbol id="camera" viewBox="0 0 24 24"><path fill="currentColor" d="M9 2 7.17 4H4a2 2 0 0 0-2 2v12a2 2 0 0 0 2 2h16a2 2 0 0 0 2-2V6a2 2 0 0 0-2-2h-3.17L15 2H9Zm3 15a5 5 0 1 1 5-5 5 5 0 0 1-5 5Zm0-2a3 3 0 1 0-3-3 3 3 0 0 0 3 3Z"/></symbol>
    <symbol id="more-vert" viewBox="0 0 24 24"><path fill="currentColor" d="M12 8a2 2 0 1 0-2-2 2 2 0 0 0 2 2Zm0 2a2 2 0 1 0 2 2 2 2 0 0 0-2-2Zm0 6a2 2 0 1 0 2 2 2 2 0 0 0-2-2Z"/></symbol>

    <!-- Chats list rows -->
    <symbol id="archived" viewBox="0 0 24 24"><path fill="currentColor" d="M20.54 5.23 19.15 3.55A1.5 1.5 0 0 0 18 3H6a1.49 1.49 0 0 0-1.16.55L3.46 5.23A2 2 0 0 0 3 6.5V19a2 2 0 0 0 2 2h14a2 2 0 0 0 2-2V6.5a2 2 0 0 0-.46-1.27ZM12 17.5 6.5 12H10v-2h4v2h3.5L12 17.5ZM5.12 5l.82-1h12l.93 1H5.12Z"/></symbol>
    <symbol id="mute-bell" viewBox="0 0 24 24"><path fill="currentColor" d="M3.27 3 2 4.27l3.04 3.04A6.96 6.96 0 0 0 4 12v5l-2 2v1h17.73l2 2L23 20.73 3.27 3ZM12 22a2 2 0 0 0 2-2h-4a2 2 0 0 0 2 2Zm6-7v-3a6 6 0 0 0-7.5-5.81L19.07 14h.93Z"/></symbol>

    <!-- FAB -->
    <symbol id="fab-plus" viewBox="0 0 24 24"><path fill="currentColor" d="M19 13h-6v6h-2v-6H5v-2h6V5h2v6h6v2Z"/></symbol>

    <!-- Bottom tabs -->
    <symbol id="tab-chats" viewBox="0 0 24 24"><path fill="currentColor" d="M20 2H4a2 2 0 0 0-2 2v18l4-4h14a2 2 0 0 0 2-2V4a2 2 0 0 0-2-2Z"/></symbol>
    <symbol id="tab-updates" viewBox="0 0 24 24"><path fill="none" stroke="currentColor" stroke-width="2" d="M12 4v3M12 17v3M4 12h3M17 12h3M6.34 6.34l2.12 2.12M15.54 15.54l2.12 2.12M6.34 17.66l2.12-2.12M15.54 8.46l2.12-2.12"/><circle cx="12" cy="12" r="3" fill="currentColor"/></symbol>
    <symbol id="tab-communities" viewBox="0 0 24 24"><path fill="currentColor" d="M16 11c1.66 0 2.99-1.34 2.99-3S17.66 5 16 5c-1.66 0-3 1.34-3 3s1.34 3 3 3Zm-8 0c1.66 0 2.99-1.34 2.99-3S9.66 5 8 5C6.34 5 5 6.34 5 8s1.34 3 3 3Zm0 2c-2.33 0-7 1.17-7 3.5V19h14v-2.5c0-2.33-4.67-3.5-7-3.5Zm8 0c-.29 0-.62.02-.97.05 1.16.84 1.97 1.97 1.97 3.45V19h6v-2.5c0-2.33-4.67-3.5-7-3.5Z"/></symbol>
    <symbol id="tab-calls" viewBox="0 0 24 24"><path fill="currentColor" d="M6.62 10.79a15.05 15.05 0 0 0 6.59 6.59l2.2-2.2a1 1 0 0 1 1.02-.24c1.12.37 2.33.57 3.57.57a1 1 0 0 1 1 1V20a1 1 0 0 1-1 1A17 17 0 0 1 3 4a1 1 0 0 1 1-1h3.5a1 1 0 0 1 1 1c0 1.24.2 2.45.57 3.57a1 1 0 0 1-.25 1.02l-2.2 2.2Z"/></symbol>

    <!-- Conversation header -->
    <symbol id="back" viewBox="0 0 24 24"><path fill="currentColor" d="M20 11H7.83l5.59-5.59L12 4l-8 8 8 8 1.41-1.41L7.83 13H20v-2Z"/></symbol>
    <symbol id="video" viewBox="0 0 24 24"><path fill="currentColor" d="M17 10.5V7a1 1 0 0 0-1-1H4a1 1 0 0 0-1 1v10a1 1 0 0 0 1 1h12a1 1 0 0 0 1-1v-3.5l4 4v-11l-4 4Z"/></symbol>
    <symbol id="phone" viewBox="0 0 24 24"><path fill="currentColor" d="M6.62 10.79a15.05 15.05 0 0 0 6.59 6.59l2.2-2.2a1 1 0 0 1 1.02-.24c1.12.37 2.33.57 3.57.57a1 1 0 0 1 1 1V20a1 1 0 0 1-1 1A17 17 0 0 1 3 4a1 1 0 0 1 1-1h3.5a1 1 0 0 1 1 1c0 1.24.2 2.45.57 3.57a1 1 0 0 1-.25 1.02l-2.2 2.2Z"/></symbol>

    <!-- Input bar -->
    <symbol id="emoji" viewBox="0 0 24 24"><path fill="currentColor" d="M11.99 2C6.47 2 2 6.48 2 12s4.47 10 9.99 10C17.52 22 22 17.52 22 12S17.52 2 11.99 2Zm.01 18a8 8 0 1 1 0-16 8 8 0 0 1 0 16Zm3.5-9a1.5 1.5 0 1 0-1.5-1.5 1.5 1.5 0 0 0 1.5 1.5Zm-7 0a1.5 1.5 0 1 0-1.5-1.5A1.5 1.5 0 0 0 8.5 11Zm3.5 6.5a5.5 5.5 0 0 0 5.11-3.5H6.89a5.5 5.5 0 0 0 5.11 3.5Z"/></symbol>
    <symbol id="attach" viewBox="0 0 24 24"><path fill="currentColor" d="M16.5 6v11.5a4 4 0 0 1-8 0V5a2.5 2.5 0 0 1 5 0v10.5a1 1 0 0 1-2 0V6H10v9.5a2.5 2.5 0 0 0 5 0V5a4 4 0 0 0-8 0v12.5a5.5 5.5 0 0 0 11 0V6h-1.5Z"/></symbol>
    <symbol id="mic" viewBox="0 0 24 24"><path fill="currentColor" d="M12 14a3 3 0 0 0 3-3V5a3 3 0 1 0-6 0v6a3 3 0 0 0 3 3Zm5.3-3c0 3-2.54 5.1-5.3 5.1S6.7 14 6.7 11H5a7 7 0 0 0 6 6.92V21h2v-3.08A7 7 0 0 0 19 11h-1.7Z"/></symbol>

    <!-- Ticks -->
    <symbol id="tick-single" viewBox="0 0 18 12">
      <path fill="none" stroke="currentColor" stroke-width="1.6" stroke-linecap="round" stroke-linejoin="round" d="M2 6.5 6 10.5 16 1.5"/>
    </symbol>
    <symbol id="tick-double" viewBox="0 0 20 10">
      <path fill="none" stroke="currentColor" stroke-width="1.5" stroke-linecap="round" stroke-linejoin="round" d="M1 5 L4 8 L11 1 M7 5 L10 8 L18 1"/>
    </symbol>

    <!-- Status share embed -->
    <symbol id="status-camera" viewBox="0 0 24 24"><path fill="currentColor" d="M17 10.5V7a1 1 0 0 0-1-1H4a1 1 0 0 0-1 1v10a1 1 0 0 0 1 1h12a1 1 0 0 0 1-1v-3.5l4 4v-11l-4 4Z"/></symbol>

    <!-- Group avatar fallback -->
    <symbol id="people" viewBox="0 0 24 24"><path fill="currentColor" d="M16 11c1.66 0 2.99-1.34 2.99-3S17.66 5 16 5c-1.66 0-3 1.34-3 3s1.34 3 3 3Zm-8 0c1.66 0 2.99-1.34 2.99-3S9.66 5 8 5C6.34 5 5 6.34 5 8s1.34 3 3 3Zm0 2c-2.33 0-7 1.17-7 3.5V19h14v-2.5c0-2.33-4.67-3.5-7-3.5Zm8 0c-.29 0-.62.02-.97.05 1.16.84 1.97 1.97 1.97 3.45V19h6v-2.5c0-2.33-4.67-3.5-7-3.5Z"/></symbol>
  </defs>
</svg>
