<svg xmlns="http://www.w3.org/2000/svg" viewBox="0 0 512 512">
  <defs>
    <linearGradient id="g" x1="0" y1="0" x2="0" y2="1">
      <stop offset="0" stop-color="#25D366"/>
      <stop offset="1" stop-color="#0DA678"/>
    </linearGradient>
  </defs>
  <rect width="512" height="512" fill="url(#g)"/>
  <g transform="translate(51 51) scale(0.8)">
    <path fill="#fff" d="M256 96c-83.95 0-152 68.05-152 152 0 26.27 6.78 51.85 19.65 74.4L104 416l95.32-19.05A151.39 151.39 0 0 0 256 408c83.95 0 152-68.05 152-152S339.95 96 256 96Zm88.83 217.43c-3.77 10.55-18.55 19.41-30.42 21.97-8.11 1.74-18.7 3.13-54.36-11.66-45.5-18.84-74.74-65.05-77-68.06-2.23-3.01-18.54-24.66-18.54-47.05 0-22.39 11.39-33.39 15.46-37.93 3.4-3.78 8.13-5.49 13.16-5.49 1.62 0 3.07.08 4.37.14 4.43.19 6.66.45 9.61 7.5 3.66 8.8 12.45 30.59 13.51 32.84 1.07 2.25 2.16 5.29.43 8.3-1.62 3.13-3.07 4.66-5.32 7.21-2.25 2.55-4.37 4.5-6.62 7.21-2.06 2.5-4.41 5.18-1.8 9.69 2.61 4.43 11.59 19.05 24.85 30.86 17.13 15.24 31.06 20.13 36.06 22.22 3.78 1.55 8.27 1.18 11.04-1.74 3.52-3.78 7.86-10.03 12.32-16.18 3.13-4.41 7.04-4.96 11.15-3.41 4.21 1.45 26.5 12.45 31.06 14.7 4.56 2.25 7.58 3.34 8.66 5.18 1.07 1.83 1.07 10.51-2.66 21.06Z"/>
  </g>
</svg>
